<?xml version="1.0" encoding="utf-8"?>
<svg xmlns="http://www.w3.org/2000/svg" viewBox="0 0 48 48" width="24px" height="24px">
  <path d="M 25.055 12.866 C 25.055 9.425 22.337 6.733 19.032 6.733 C 18.298 6.733 17.636 6.882 16.977 7.107 C 16.755 4.564 14.698 2.469 12.127 2.469 C 9.41 2.469 7.206 4.714 7.206 7.481 C 7.206 8.079 7.353 8.677 7.5 9.202 C 7.279 9.126 6.986 9.126 6.765 9.126 C 4.047 9.126 1.844 11.37 1.844 14.138 C 1.844 16.83 3.974 19.075 6.619 19.149 L 19.252 19.149 C 22.485 18.776 25.055 16.157 25.055 12.866 Z" stroke-linejoin="round" style="opacity: 0.9; fill: none; stroke-linecap: round; paint-order: stroke; stroke-width: 1.3px;"/>
  <path d="M 10.055 13.558 C 10.064 13.618 10.07 13.674 10.073 13.728 C 10.078 13.783 10.08 13.845 10.08 13.914 C 10.08 14.032 10.051 14.14 9.989 14.24 C 9.963 14.289 9.928 14.336 9.884 14.38 C 9.841 14.426 9.789 14.461 9.728 14.493 C 9.51 14.631 9.28 14.68 9.037 14.641 C 8.915 14.603 8.805 14.538 8.71 14.447 C 8.692 14.429 8.679 14.415 8.671 14.411 C 8.662 14.407 8.653 14.393 8.645 14.374 C 8.636 14.365 8.626 14.352 8.618 14.336 C 8.61 14.322 8.597 14.31 8.58 14.299 C 8.536 14.251 8.501 14.203 8.475 14.159 C 8.448 14.114 8.422 14.067 8.396 14.018 C 8.379 13.968 8.36 13.921 8.338 13.878 C 8.317 13.833 8.292 13.784 8.266 13.735 C 8.249 13.697 8.231 13.658 8.213 13.624 C 8.196 13.589 8.183 13.552 8.175 13.514 C 8.139 13.424 8.118 13.345 8.109 13.276 L 7.836 12.549 C 7.234 12.549 6.636 12.552 6.04 12.556 C 5.444 12.561 4.846 12.559 4.246 12.549 L 3.97 13.276 C 3.955 13.314 3.942 13.356 3.938 13.394 C 3.934 13.435 3.923 13.473 3.906 13.514 C 3.888 13.552 3.873 13.589 3.86 13.624 C 3.847 13.658 3.832 13.697 3.814 13.735 C 3.788 13.784 3.764 13.833 3.743 13.878 C 3.721 13.921 3.697 13.968 3.671 14.018 C 3.653 14.067 3.632 14.114 3.605 14.159 C 3.579 14.203 3.544 14.251 3.501 14.299 C 3.483 14.31 3.47 14.322 3.462 14.336 C 3.453 14.352 3.444 14.365 3.436 14.374 C 3.427 14.393 3.419 14.407 3.409 14.411 C 3.401 14.415 3.387 14.429 3.371 14.447 C 3.274 14.538 3.166 14.603 3.044 14.641 C 2.8 14.68 2.57 14.631 2.352 14.493 C 2.291 14.461 2.239 14.426 2.195 14.38 C 2.152 14.336 2.117 14.289 2.091 14.24 C 2.03 14.14 2 14.032 2 13.914 C 2 13.845 2.002 13.783 2.006 13.728 C 2.01 13.674 2.018 13.618 2.026 13.558 C 2.043 13.468 2.066 13.38 2.091 13.29 C 2.117 13.202 2.131 13.158 2.131 13.158 L 4.846 5.558 L 4.924 5.32 C 4.942 5.262 4.963 5.207 4.99 5.158 C 5.016 5.109 5.037 5.048 5.056 4.98 C 5.098 4.851 5.147 4.737 5.198 4.638 C 5.225 4.578 5.255 4.524 5.289 4.474 C 5.325 4.424 5.36 4.375 5.395 4.326 C 5.446 4.247 5.52 4.183 5.615 4.134 C 5.737 4.083 5.879 4.059 6.04 4.059 C 6.201 4.059 6.343 4.083 6.464 4.134 C 6.56 4.183 6.634 4.247 6.687 4.326 C 6.748 4.414 6.812 4.518 6.882 4.638 C 6.934 4.737 6.982 4.851 7.026 4.98 C 7.042 5.048 7.065 5.109 7.092 5.158 C 7.117 5.207 7.138 5.262 7.156 5.32 L 7.234 5.558 L 9.95 13.158 C 9.95 13.158 9.963 13.202 9.989 13.29 C 10.016 13.38 10.037 13.468 10.055 13.558 Z M 6.96 9.921 C 6.847 9.635 6.731 9.338 6.614 9.03 C 6.497 8.724 6.373 8.411 6.242 8.096 C 6.208 8.006 6.173 7.915 6.139 7.821 C 6.104 7.728 6.069 7.636 6.034 7.546 C 6.007 7.636 5.977 7.728 5.943 7.821 C 5.906 7.915 5.872 8.006 5.837 8.096 C 5.708 8.411 5.584 8.724 5.466 9.03 C 5.348 9.338 5.233 9.635 5.119 9.921 L 4.885 10.575 L 7.195 10.575 L 6.96 9.921 Z M 17.794 13.514 C 17.828 13.582 17.85 13.655 17.858 13.728 C 17.866 13.803 17.866 13.873 17.858 13.944 C 17.85 14.081 17.802 14.205 17.714 14.316 C 17.653 14.393 17.58 14.469 17.492 14.538 C 17.423 14.587 17.326 14.611 17.206 14.611 C 17.109 14.611 17.021 14.592 16.944 14.552 C 16.839 14.502 16.748 14.438 16.671 14.359 C 16.574 14.299 16.483 14.226 16.396 14.136 L 16.03 13.78 C 15.882 13.938 15.719 14.072 15.54 14.181 C 15.362 14.289 15.177 14.379 14.985 14.447 C 14.707 14.548 14.423 14.605 14.131 14.618 C 13.84 14.632 13.55 14.603 13.263 14.524 C 12.975 14.445 12.698 14.319 12.434 14.151 C 12.169 13.983 11.926 13.766 11.71 13.499 C 11.449 13.192 11.235 12.838 11.07 12.437 C 10.904 12.036 10.774 11.619 10.678 11.183 C 10.583 10.748 10.522 10.307 10.495 9.862 C 10.47 9.418 10.47 8.996 10.495 8.601 C 10.522 8.224 10.574 7.817 10.652 7.376 C 10.73 6.936 10.85 6.513 11.011 6.108 C 11.173 5.7 11.377 5.341 11.625 5.024 C 11.872 4.707 12.175 4.49 12.532 4.37 C 13.394 4.064 14.125 4.007 14.725 4.199 C 15.326 4.393 15.816 4.737 16.199 5.231 C 16.505 5.628 16.746 6.093 16.924 6.627 C 17.104 7.16 17.226 7.72 17.29 8.304 C 17.355 8.887 17.37 9.475 17.335 10.063 C 17.301 10.651 17.222 11.197 17.1 11.703 L 16.865 12.414 C 16.997 12.553 17.12 12.679 17.238 12.793 C 17.355 12.908 17.432 12.989 17.466 13.038 C 17.527 13.106 17.586 13.179 17.642 13.253 C 17.698 13.328 17.749 13.414 17.794 13.514 Z M 12.728 11.969 C 12.989 12.356 13.304 12.586 13.673 12.661 C 14.044 12.734 14.389 12.663 14.712 12.444 C 14.59 12.306 14.477 12.182 14.373 12.072 C 14.267 11.965 14.204 11.891 14.177 11.851 C 14.047 11.703 13.946 11.524 13.876 11.316 C 13.806 11.159 13.785 11.01 13.811 10.871 C 13.837 10.713 13.894 10.579 13.981 10.472 C 14.026 10.431 14.063 10.394 14.097 10.359 C 14.132 10.325 14.172 10.293 14.217 10.264 C 14.26 10.233 14.31 10.214 14.366 10.203 C 14.423 10.193 14.481 10.189 14.542 10.189 C 14.63 10.189 14.716 10.223 14.802 10.293 C 14.882 10.343 14.973 10.406 15.077 10.485 C 15.12 10.535 15.166 10.581 15.214 10.627 C 15.261 10.67 15.308 10.717 15.352 10.768 C 15.387 10.806 15.422 10.845 15.456 10.878 C 15.491 10.913 15.53 10.951 15.573 10.991 C 15.634 10.664 15.68 10.318 15.711 9.95 C 15.741 9.586 15.743 9.216 15.716 8.845 C 15.691 8.475 15.63 8.109 15.535 7.747 C 15.438 7.386 15.303 7.046 15.13 6.731 C 14.921 6.354 14.656 6.1 14.333 5.966 C 14.011 5.833 13.62 5.894 13.158 6.151 C 12.975 6.261 12.82 6.415 12.695 6.618 C 12.569 6.822 12.462 7.05 12.374 7.303 C 12.288 7.554 12.221 7.814 12.173 8.081 C 12.125 8.348 12.096 8.601 12.088 8.837 C 12.08 9.095 12.081 9.365 12.095 9.647 C 12.108 9.928 12.139 10.21 12.186 10.493 C 12.234 10.774 12.302 11.043 12.387 11.295 C 12.475 11.546 12.588 11.772 12.728 11.969 Z M 19.318 12.995 L 19.331 11.821 L 19.344 9.639 C 19.353 9.323 19.357 8.996 19.357 8.66 C 19.357 8.324 19.357 7.976 19.357 7.622 C 19.357 7.264 19.357 6.948 19.357 6.672 C 19.357 6.395 19.366 6.082 19.384 5.736 L 19.384 5.677 C 19.392 5.576 19.399 5.477 19.402 5.373 C 19.407 5.269 19.409 5.163 19.409 5.054 C 19.418 4.875 19.466 4.681 19.554 4.474 C 19.614 4.336 19.705 4.217 19.827 4.118 C 19.967 4.039 20.102 4 20.231 4 C 20.3 4 20.363 4.002 20.421 4.007 C 20.477 4.012 20.532 4.02 20.584 4.03 C 20.698 4.049 20.798 4.11 20.884 4.206 C 20.937 4.257 20.984 4.336 21.028 4.445 C 21.045 4.504 21.06 4.561 21.073 4.616 C 21.087 4.67 21.097 4.726 21.106 4.787 C 21.116 4.854 21.121 4.92 21.126 4.98 C 21.131 5.04 21.132 5.099 21.132 5.158 C 21.132 5.227 21.131 5.288 21.126 5.343 C 21.121 5.398 21.119 5.454 21.119 5.513 L 21.119 5.765 L 21.04 13.468 L 21.04 13.618 C 21.04 13.646 21.038 13.685 21.033 13.728 C 21.031 13.773 21.024 13.824 21.015 13.884 C 20.997 13.933 20.982 13.986 20.969 14.041 C 20.956 14.095 20.941 14.151 20.924 14.212 C 20.897 14.26 20.868 14.307 20.839 14.352 C 20.808 14.397 20.772 14.438 20.727 14.477 C 20.658 14.557 20.545 14.611 20.388 14.641 C 20.153 14.701 19.93 14.677 19.723 14.568 C 19.618 14.488 19.544 14.389 19.5 14.27 C 19.474 14.24 19.462 14.212 19.462 14.181 C 19.453 14.161 19.443 14.146 19.435 14.136 C 19.427 14.126 19.418 14.111 19.409 14.092 C 19.392 14.042 19.378 13.991 19.371 13.937 C 19.361 13.882 19.357 13.824 19.357 13.766 C 19.348 13.716 19.341 13.667 19.337 13.618 C 19.333 13.566 19.327 13.517 19.318 13.468 C 19.308 13.389 19.308 13.307 19.318 13.217 L 19.318 12.995 Z" style="text-wrap-mode: nowrap; fill: rgb(120, 179, 206); stroke: rgb(5, 5, 5); paint-order: stroke; stroke-linecap: round; stroke-linejoin: round; stroke-width: 0.5px;"/>
</svg>