<?xml version="1.0" encoding="utf-8"?>
<svg version="1.1" id="Layer_3" xmlns="http://www.w3.org/2000/svg" x="0px" y="0px" viewBox="0 0 64 64" style="enable-background:new 0 0 64 64;">
  <style type="text/css">
	.st0{opacity:0.5;}
	.st1{fill:#202020;}
	.st2{opacity:0.5;fill:#202020;}
</style>
  <path class="st1" d="M 56.755 49.41 C 56.655 48.61 56.555 47.71 56.255 46.91 C 54.155 39.81 46.755 30.41 46.755 30.41 C 46.755 30.41 39.355 39.81 37.255 47.01 C 37.055 47.81 36.855 48.61 36.755 49.41 C 36.755 49.71 36.755 49.91 36.755 50.21 C 36.755 55.81 41.255 60.41 46.755 60.41 C 52.255 60.41 56.755 55.81 56.755 50.21 C 56.755 49.91 56.755 49.71 56.755 49.41 Z" style="fill: rgb(55, 94, 130);"/>
  <path class="st1" d="M 22.951 41.778 C 22.851 40.978 22.751 40.078 22.451 39.278 C 20.351 32.178 12.951 22.778 12.951 22.778 C 12.951 22.778 5.551 32.178 3.451 39.378 C 3.151 40.178 3.051 40.978 2.951 41.878 C 2.951 42.178 2.951 42.378 2.951 42.678 C 2.951 48.178 7.451 52.778 12.951 52.778 C 18.451 52.778 22.951 48.178 22.951 42.578 C 22.951 42.278 22.951 42.078 22.951 41.778 Z" style="fill: rgb(25, 85, 168);"/>
  <path class="st1" d="M42,21c-0.1-0.9-0.2-1.7-0.5-2.5C39.4,11.4,32,2,32,2s-7.4,9.4-9.5,16.6c-0.3,0.8-0.4,1.6-0.5,2.5 c0,0.3,0,0.5,0,0.8C22,27.4,26.5,32,32,32c5.5,0,10-4.6,10-10.2C42,21.5,42,21.3,42,21z" style="fill: rgb(30, 146, 212);"/>
  <path class="st1" d="M 42.029 54.225 C 41.795 54.225 41.483 54.18 41.25 54.089 C 40.551 53.819 40.318 53.279 40.705 52.875 L 49.883 44.067 C 50.349 43.661 51.282 43.527 51.98 43.75 C 52.682 44.021 52.917 44.56 52.526 44.965 L 43.349 53.819 C 43.04 54.089 42.572 54.225 42.029 54.225 Z" style="fill: rgb(149, 165, 188);"/>
  <path class="st1" d="M 42.737 48.904 C 41.067 48.904 39.655 47.738 39.655 46.259 C 39.655 44.823 41.013 43.614 42.737 43.614 C 44.409 43.614 45.821 44.78 45.821 46.259 C 45.821 47.738 44.409 48.904 42.737 48.904 Z M 42.737 45.406 C 42.162 45.406 41.693 45.809 41.693 46.303 C 41.693 46.795 42.162 47.2 42.737 47.2 C 43.315 47.2 43.784 46.795 43.784 46.303 C 43.784 45.809 43.315 45.406 42.737 45.406 Z" style="fill: rgb(149, 165, 188);"/>
  <path class="st1" d="M 50.362 54.283 C 48.688 54.283 47.276 53.1 47.276 51.599 C 47.276 50.14 48.638 48.912 50.362 48.912 C 52.031 48.912 53.443 50.095 53.443 51.599 C 53.443 53.1 52.031 54.283 50.362 54.283 Z M 50.362 50.731 C 49.784 50.731 49.315 51.142 49.315 51.642 C 49.315 52.142 49.784 52.554 50.362 52.554 C 50.936 52.554 51.405 52.142 51.405 51.642 C 51.405 51.142 50.936 50.731 50.362 50.731 Z" style="fill: rgb(149, 165, 188);"/>
</svg>