<?xml version="1.0" encoding="utf-8"?>
<svg xmlns="http://www.w3.org/2000/svg" viewBox="3.2927 2.0086 17.4146 19.9828" width="17.4146px" height="19.9828px">
  <defs>
    <style type="text/css">
      	.st0{fill:#4361EE; opacity:0.75;}
      </style>
  </defs>
  <g transform="matrix(1, 0, 0, 1, 2.220446049250313e-16, 0)">
    <path class="st0" d="M5.84301215,4.55890685 C9.24342264,1.15849636 14.7565774,1.15849636 18.1569879,4.55890685 C21.4893901,7.89130914 21.5560382,13.252791 18.356932,16.6663564 L18.1569879,16.8728826 C17.2419979,17.7878725 15.7116094,19.2826735 13.5641649,21.3589636 C12.6919186,22.2023085 11.3080914,22.2022001 10.4359799,21.3587188 L6.5863078,17.6101042 C6.30208268,17.3299283 6.0543257,17.0841961 5.84301215,16.8728826 C2.44260165,13.4724721 2.44260165,7.95931735 5.84301215,4.55890685 Z M17.0963277,5.61956702 C14.2817036,2.80494297 9.71829638,2.80494297 6.90367232,5.61956702 C4.08904826,8.43419108 4.08904826,12.9975983 6.90367232,15.8122224 L8.59986042,17.4841867 C9.38268933,18.2492508 10.3424212,19.181446 11.478793,20.2805069 C11.7694967,20.5616672 12.2307719,20.5617033 12.5215209,20.2805882 L15.4959128,17.3910853 C16.1544227,16.746944 16.6879447,16.2206054 17.0963277,15.8122224 C19.9109517,12.9975983 19.9109517,8.43419108 17.0963277,5.61956702 Z M14.9462117,7.61294647 L15.0303301,7.68556462 C15.2965966,7.95183118 15.3208027,8.36849486 15.1029482,8.66210636 L15.0303301,8.74622479 L13.061,10.7158947 L15.0303301,12.6855646 C15.2965966,12.9518312 15.3208027,13.3684949 15.1029482,13.6621064 L15.0303301,13.7462248 C14.7640635,14.0124914 14.3473998,14.0366974 14.0537883,13.8188429 L13.9696699,13.7462248 L12,11.7768947 L10.0303301,13.7462248 C9.76406352,14.0124914 9.34739984,14.0366974 9.05378835,13.8188429 L8.96966991,13.7462248 C8.70340335,13.4799582 8.6791973,13.0632945 8.89705176,12.7696831 L8.96966991,12.6855646 L10.939,10.7158947 L8.96966991,8.74622479 C8.70340335,8.47995823 8.6791973,8.06329455 8.89705176,7.76968305 L8.96966991,7.68556462 C9.23593648,7.41929806 9.65260016,7.395092 9.94621165,7.61294647 L10.0303301,7.68556462 L12,9.6548947 L13.9696699,7.68556462 C14.2359365,7.41929806 14.6526002,7.395092 14.9462117,7.61294647 Z"/>
    <path class="st0" d="M 14.969 7.614 L 15.053 7.687 C 15.32 7.953 15.344 8.369 15.126 8.663 L 15.053 8.747 L 13.084 10.717 L 15.053 12.687 C 15.32 12.953 15.344 13.369 15.126 13.663 L 15.053 13.747 C 14.787 14.013 14.37 14.038 14.077 13.82 L 13.993 13.747 L 12.023 11.778 L 10.053 13.747 C 9.787 14.013 9.37 14.038 9.077 13.82 L 8.993 13.747 C 8.726 13.481 8.702 13.064 8.92 12.771 L 8.993 12.687 L 10.962 10.717 L 8.993 8.747 C 8.726 8.481 8.702 8.064 8.92 7.771 L 8.993 7.687 C 9.259 7.42 9.676 7.396 9.969 7.614 L 10.053 7.687 L 12.023 9.656 L 13.993 7.687 C 14.259 7.42 14.676 7.396 14.969 7.614 Z" style="fill: rgb(206, 12, 12);"/>
  </g>
</svg>