<?xml version="1.0" encoding="utf-8"?>
<svg version="1.1" id="Layer_3" xmlns="http://www.w3.org/2000/svg" x="0px" y="0px" viewBox="0 0 64 64" style="enable-background:new 0 0 64 64;" width="32px" height="32px">
  <style type="text/css">
	.st0{opacity:0.75;}
	.st1{fill:#c6deff;}
	.st2{opacity:0.5;fill:#202020;}
</style>
  <g class="st0" style="" transform="matrix(0.831741, 0, 0, 0.791109, 4.327788, 13.254681)">
    <path class="st1" d="M34,4.1V3c0-1.1-0.9-2-2-2s-2,0.9-2,2v1.1C13.8,5.1,1,18.6,1,35c0,0.1,0,0.1,0,0.2c0,0,0,0.1,0,0.1 c0,0.1,0.1,0.2,0.1,0.2c0,0,0,0.1,0.1,0.1c0,0.1,0.1,0.1,0.2,0.2c0,0,0,0.1,0.1,0.1c0,0,0.1,0,0.1,0.1c0,0,0,0,0.1,0 C1.8,36,1.9,36,2,36c0.3,0,0.6-0.2,0.8-0.4c1.5-2.2,4-3.6,6.7-3.6c2.7,0,5.1,1.3,6.6,3.5c0.1,0.1,0.2,0.2,0.3,0.3c0,0,0,0,0,0 c0.5,0.3,1.1,0.2,1.4-0.3c1.5-2.2,4-3.6,6.7-3.6c2.7,0,5.1,1.3,6.6,3.5c0,0.1,0.1,0.1,0.1,0.1c0,0.1,0.1,0.1,0.2,0.2c0,0,0,0,0,0 c0,0,0,0,0,0C31.6,36,31.8,36,32,36c0.2,0,0.4-0.1,0.5-0.2c0.2-0.1,0.3-0.2,0.3-0.4c1.5-2.2,3.9-3.5,6.6-3.5c2.7,0,5.1,1.3,6.6,3.5 c0.1,0.1,0.2,0.2,0.3,0.3c0,0,0,0,0,0c0.2,0.1,0.4,0.2,0.6,0.2c0.3,0,0.6-0.2,0.8-0.4c1.5-2.2,4-3.6,6.7-3.6c2.7,0,5.1,1.3,6.6,3.5 c0,0,0.1,0.1,0.1,0.1c0,0,0.1,0.1,0.1,0.1c0,0,0.1,0.1,0.1,0.1c0.2,0.1,0.3,0.2,0.5,0.2c0.6,0,1-0.4,1-1C63,18.6,50.2,5.1,34,4.1z" style="fill: rgb(37, 72, 120);"/>
    <path class="st1" d="M40,55c-1.1,0-2,0.9-2,2s-0.9,2-2,2s-2-0.9-2-2V39.6c-0.6,0.3-1.3,0.4-2,0.4c-0.7,0-1.4-0.2-2-0.4V57 c0,3.3,2.7,6,6,6s6-2.7,6-6C42,55.9,41.1,55,40,55z" style="fill: rgb(37, 72, 120);"/>
  </g>
  <g class="am-weather-rainy-3" transform="matrix(1.520712, 0.268138, -0.438431, 2.486464, 45.925911, -1.448826)" fill="none" stroke="#91c0f8" stroke-dasharray="4, 4" stroke-linecap="round" stroke-width="2" style="">
    <line class="am-weather-rain-1" y2="12.445" x1="-14.134" y1="4.445" x2="-14.134"/>
    <line class="am-weather-rain-2" y2="10.719" x1="-5.641" y1="2.719" x2="-5.641"/>
    <line class="am-weather-rain-1" y2="12.404" x1="2.908" y1="4.404" x2="2.908"/>
  </g>
</svg>